<?xml version="1.0" encoding="UTF-8" standalone="no"?>
<!-- Created by Makercase v3 -->

<!-- MAKERCASE_STATE:{"mc":1,"gen":"basicBox","sv":2,"store":"basicBoxStore","data":"PU67DsIwEPsXz1FVHkVqZhYGJCTYEEMgR3tSX0pCKVT9d660sNk+++weLTnPdQW9VLjW3a7ybGnLpYfu8WQbcuhVqmCpGWEiMCfO8iCJdD0olCaQY1OM/tYUDxK/QqBOHFhFcQyF28OHuoS+m8KTZPjbMnOFuiEZMBMZcXo1csSdq4ycxMlmdDDOTKMm+chv8ciaie5ZPmz+zHTQizRKfsIxUAMdR4mUO6osOXMtJH9eqPgyfAA=","crc":1580883829} -->

<svg
   width="287mm"
   height="310mm"
   viewBox="-5 -5 287 310"
   version="1.1"
   id="svg38"
   sodipodi:docname="epadaPrototipoAlfa2.0.svg"
   inkscape:version="1.2.2 (b0a8486541, 2022-12-01)"
   inkscape:export-filename="epadaPrototipoAlfa2.0.svg"
   inkscape:export-xdpi="96"
   inkscape:export-ydpi="96"
   xmlns:inkscape="http://www.inkscape.org/namespaces/inkscape"
   xmlns:sodipodi="http://sodipodi.sourceforge.net/DTD/sodipodi-0.dtd"
   xmlns="http://www.w3.org/2000/svg"
   xmlns:svg="http://www.w3.org/2000/svg">
  <defs
     id="defs42" />
  <sodipodi:namedview
     id="namedview40"
     pagecolor="#ffffff"
     bordercolor="#000000"
     borderopacity="0.25"
     inkscape:showpageshadow="2"
     inkscape:pageopacity="0.0"
     inkscape:pagecheckerboard="0"
     inkscape:deskcolor="#d1d1d1"
     inkscape:document-units="mm"
     showgrid="false"
     inkscape:zoom="0.28485759"
     inkscape:cx="-268.55525"
     inkscape:cy="391.42367"
     inkscape:window-width="1440"
     inkscape:window-height="852"
     inkscape:window-x="0"
     inkscape:window-y="25"
     inkscape:window-maximized="1"
     inkscape:current-layer="svg38" />
  <g
     transform="matrix(1,0,0,-1,22.5,150)"
     id="g6">
    <path
       stroke="#ff0000"
       stroke-width="0.25"
       fill="none"
       d="m 19.5,150 h -6 v -3 h -9 v 3 h -9 v -3 h -9 v 3 h -6 v -3 -7.5 h -3 v -9 h 3 v -9 h -3 v -9 h 3 v -9 h -3 v -9 h 3 v -9 h -3 v -9 h 3 v -9 h -3 v -9 h 3 v -9 h -3 v -9 h 3 v -9 h -3 v -9 h 3 v -9 h -3 v -9 h 3 v -9 h -3 v -9 h 3 v -9 h -3 v -9 h 3 v -9 h -3 v -9 h 3 v -9 h -3 v -9 h 3 v -9 h -3 v -9 h 3 v -9 h -3 v -9 h 3 v -9 h -3 v -9 h 3 v -9 h -3 v -9 h 3 v -7.5 -3 h 6 v 3 h 9 v -3 h 9 v 3 h 9 v -3 h 6 v 3 7.5 h 3 v 9 h -3 v 9 h 3 v 9 h -3 v 9 h 3 v 9 h -3 v 9 h 3 v 9 h -3 v 9 h 3 v 9 h -3 v 9 h 3 v 9 h -3 v 9 h 3 v 9 h -3 v 9 h 3 v 9 h -3 v 9 h 3 v 9 h -3 v 9 h 3 v 9 h -3 v 9 h 3 v 9 h -3 v 9 h 3 v 9 h -3 v 9 h 3 v 9 h -3 v 9 h 3 v 9 h -3 v 9 h 3 v 9 h -3 v 9 h 3 v 9 h -3 v 7.5 z"
       id="path2" />
  </g>
  <g
     transform="matrix(1,0,0,-1,70.5,150)"
     id="g12">
    <path
       stroke="#ff0000"
       stroke-width="0.25"
       fill="none"
       d="m 19.5,150 h -6 v -3 h -9 v 3 h -9 v -3 h -9 v 3 h -6 v -3 -7.5 h -3 v -9 h 3 v -9 h -3 v -9 h 3 v -9 h -3 v -9 h 3 v -9 h -3 v -9 h 3 v -9 h -3 v -9 h 3 v -9 h -3 v -9 h 3 v -9 h -3 v -9 h 3 v -9 h -3 v -9 h 3 v -9 h -3 v -9 h 3 v -9 h -3 v -9 h 3 v -9 h -3 v -9 h 3 v -9 h -3 v -9 h 3 v -9 h -3 v -9 h 3 v -9 h -3 v -9 h 3 v -9 h -3 v -9 h 3 v -9 h -3 v -9 h 3 v -7.5 -3 h 6 v 3 h 9 v -3 h 9 v 3 h 9 v -3 h 6 v 3 7.5 h 3 v 9 h -3 v 9 h 3 v 9 h -3 v 9 h 3 v 9 h -3 v 9 h 3 v 9 h -3 v 9 h 3 v 9 h -3 v 9 h 3 v 9 h -3 v 9 h 3 v 9 h -3 v 9 h 3 v 9 h -3 v 9 h 3 v 9 h -3 v 9 h 3 v 9 h -3 v 9 h 3 v 9 h -3 v 9 h 3 v 9 h -3 v 9 h 3 v 9 h -3 v 9 h 3 v 9 h -3 v 9 h 3 v 9 h -3 v 9 h 3 v 9 h -3 v 7.5 z"
       id="path8" />
  </g>
  <g
     transform="matrix(1,0,0,-1,128.5,150)"
     id="g18">
    <path
       stroke="#ff0000"
       stroke-width="0.25"
       fill="none"
       d="m 32.5,150 h -3 -7 v -3 h -9 v 3 h -9 v -3 h -9 v 3 h -9 v -3 h -9 v 3 h -7 -3 v -3 -7.5 h 3 v -9 h -3 v -9 h 3 v -9 h -3 v -9 h 3 v -9 h -3 v -9 h 3 v -9 h -3 v -9 h 3 v -9 h -3 v -9 h 3 v -9 h -3 v -9 h 3 v -9 h -3 v -9 h 3 v -9 h -3 v -9 h 3 v -9 h -3 v -9 h 3 v -9 h -3 v -9 h 3 v -9 h -3 v -9 h 3 v -9 h -3 v -9 h 3 v -9 h -3 v -9 h 3 v -9 h -3 v -9 h 3 v -9 h -3 v -9 h 3 v -9 h -3 v -7.5 -3 h 3 7 v 3 h 9 v -3 h 9 v 3 h 9 v -3 h 9 v 3 h 9 v -3 h 7 3 v 3 7.5 h -3 v 9 h 3 v 9 h -3 v 9 h 3 v 9 h -3 v 9 h 3 v 9 h -3 v 9 h 3 v 9 h -3 v 9 h 3 v 9 h -3 v 9 h 3 v 9 h -3 v 9 h 3 v 9 h -3 v 9 h 3 v 9 h -3 v 9 h 3 v 9 h -3 v 9 h 3 v 9 h -3 v 9 h 3 v 9 h -3 v 9 h 3 v 9 h -3 v 9 h 3 v 9 h -3 v 9 h 3 v 9 h -3 v 9 h 3 v 9 h -3 v 9 h 3 v 7.5 z"
       id="path14" />
    <rect
       style="fill:none;stroke:#ff0000;stroke-width:0.264583;stroke-opacity:1"
       id="rect1072"
       width="9.6754389"
       height="3.8405867"
       x="123.78352"
       y="220.93292"
       transform="matrix(1,0,0,-1,-128.5,150)" />
    <rect
       style="fill:none;stroke:#ff0000;stroke-width:0.264583;stroke-opacity:1"
       id="rect1072-3"
       width="9.6754389"
       height="3.8405867"
       x="-4.6946378"
       y="-125.04918"
       transform="scale(1,-1)" />
  </g>
  <circle
     style="fill:none;stroke:#ff0000;stroke-width:0.264583;stroke-opacity:1"
     id="path254-3"
     cx="194.62947"
     cy="48.010635"
     r="2.5" />
  <circle
     style="fill:none;stroke:#ff0000;stroke-width:0.264583;stroke-opacity:1"
     id="path254-6"
     cx="194.62947"
     cy="69.243965"
     r="2.5" />
  <circle
     style="fill:none;stroke:#ff0000;stroke-width:0.264583;stroke-opacity:1"
     id="path254-7"
     cx="194.62947"
     cy="111.71063"
     r="2.5" />
  <circle
     style="fill:none;stroke:#ff0000;stroke-width:0.264583;stroke-opacity:1"
     id="path254-5"
     cx="194.62947"
     cy="90.477303"
     r="2.5" />
  <circle
     style="fill:none;stroke:#ff0000;stroke-width:0.264583;stroke-opacity:1"
     id="path254-35"
     cx="194.62947"
     cy="132.94397"
     r="2.5" />
  <circle
     style="fill:none;stroke:#ff0000;stroke-width:0.264583;stroke-opacity:1"
     id="path254-62"
     cx="194.62947"
     cy="154.17731"
     r="2.5" />
  <g
     transform="matrix(1,0,0,-1,196.5,150)"
     id="g24">
    <path
       stroke="#ff0000"
       stroke-width="0.25"
       fill="none"
       d="m 32.5,150 h -3 -7 v -3 h -9 v 3 h -9 v -3 h -9 v 3 h -9 v -3 h -9 v 3 h -7 -3 v -3 -7.5 h 3 v -9 h -3 v -9 h 3 v -9 h -3 v -9 h 3 v -9 h -3 v -9 h 3 v -9 h -3 v -9 h 3 v -9 h -3 v -9 h 3 v -9 h -3 v -9 h 3 v -9 h -3 v -9 h 3 v -9 h -3 v -9 h 3 v -9 h -3 v -9 h 3 v -9 h -3 v -9 h 3 v -9 h -3 v -9 h 3 v -9 h -3 v -9 h 3 v -9 h -3 v -9 h 3 v -9 h -3 v -9 h 3 v -9 h -3 v -9 h 3 v -9 h -3 v -7.5 -3 h 3 7 v 3 h 9 v -3 h 9 v 3 h 9 v -3 h 9 v 3 h 9 v -3 h 7 3 v 3 7.5 h -3 v 9 h 3 v 9 h -3 v 9 h 3 v 9 h -3 v 9 h 3 v 9 h -3 v 9 h 3 v 9 h -3 v 9 h 3 v 9 h -3 v 9 h 3 v 9 h -3 v 9 h 3 v 9 h -3 v 9 h 3 v 9 h -3 v 9 h 3 v 9 h -3 v 9 h 3 v 9 h -3 v 9 h 3 v 9 h -3 v 9 h 3 v 9 h -3 v 9 h 3 v 9 h -3 v 9 h 3 v 9 h -3 v 9 h 3 v 9 h -3 v 9 h 3 v 7.5 z"
       id="path20" />
  </g>
  <g
     transform="matrix(1,0,0,-1,254.5,267.5)"
     id="g30">
    <path
       stroke="#ff0000"
       stroke-width="0.25"
       fill="none"
       d="m 13.5,32.5 h -9 v -3 h -9 v 3 h -9 v -3 h -6 v -7 h -3 v -9 h 3 v -9 h -3 v -9 h 3 v -9 h -3 v -9 h 3 v -7 h 6 v -3 h 9 v 3 h 9 v -3 h 9 v 3 h 6 v 7 h 3 v 9 h -3 v 9 h 3 v 9 h -3 v 9 h 3 v 9 h -3 v 7 h -6 z"
       id="path26" />
  </g>
  <g
     transform="matrix(1,0,0,-1,254.5,199.5)"
     id="g36">
    <path
       stroke="#ff0000"
       stroke-width="0.25"
       fill="none"
       d="m 13.5,32.5 h -9 v -3 h -9 v 3 h -9 v -3 h -6 v -7 h -3 v -9 h 3 v -9 h -3 v -9 h 3 v -9 h -3 v -9 h 3 v -7 h 6 v -3 h 9 v 3 h 9 v -3 h 9 v 3 h 6 v 7 h 3 v 9 h -3 v 9 h 3 v 9 h -3 v 9 h 3 v 9 h -3 v 7 h -6 z"
       id="path32" />
  </g>
  <path
     id="path234"
     style="fill:none;stroke:#ff0000;stroke-width:0.246141;stroke-opacity:1"
     d="m 64.966459,285.08215 a 3.6269294,3.6269318 0 0 1 -3.626929,3.62693 3.6269294,3.6269318 0 0 1 -3.62693,-3.62693 3.6269294,3.6269318 0 0 1 3.62693,-3.62693 3.6269294,3.6269318 0 0 1 3.626929,3.62693 z" />
</svg>
